<?xml version="1.0" encoding="UTF-8"?>
<svg width="512" height="512" viewBox="0 0 512 512" version="1.1" xmlns="http://www.w3.org/2000/svg">
  <g stroke="#000" stroke-linecap="round" stroke-linejoin="round" stroke-width="10">
    <path d="m163.38 193.93c-17.929-38.847 49.528-59.03 98.573 20.441 30.466 49.366 69.463 105.5 56.973 161.06-6.8589 30.511-34.864 65.905-66.13 66.548-31.19 0.64121-57.862-34.343-68.641-63.618-14.287-38.805 14.58-123.2 14.58-123.2-2.7878-37.935-23.792-49.595-35.355-61.237z" fill="#ffe"/>
    <path d="m302.27 255.17-61.237-35.355 35.355-61.237-61.237-35.355 35.355-61.237s147.53 1.9494 163.04 59.84c15.512 57.891-111.28 133.34-111.28 133.34z" fill="#d96"/>
    <path d="m250.5 61.981s-122.33-38.031-149.52 63.464c-27.195 101.49 97.757 129.72 97.757 129.72l-35.355-61.237 61.237-35.355-35.355-61.237z" fill="#d96"/>
  </g>
</svg>