<?xml version="1.0" encoding="UTF-8"?>
<svg width="512" height="512" viewBox="0 0 512 512" version="1.1" xmlns="http://www.w3.org/2000/svg" xmlns:xlink="http://www.w3.org/1999/xlink">
  <g>
    <g stroke="#000" stroke-linecap="round" stroke-linejoin="round">
      <path d="m312 166.08v-46.077h-112v46.077c-1.0908 23.495-7.7399 36.203-18 55.46-17.431 32.715-26 68.394-26 105.46v113c0 18.983 17.017 36.208 36 36.208h128c18.983 0 36-17.225 36-36.208v-113c0-37.069-8.5689-72.749-26-105.46-10.143-17.524-17.833-37.673-18-55.459z" fill="#ffd" stroke-width="10" style="paint-order:normal"/>
      <rect x="158.5" y="322.5" width="195" height="120" rx=".585" ry=".92857" fill="#2af" stroke-width="5" style="paint-order:normal"/>
      <rect x="181" y="80" width="150" height="40" rx="20" ry="20" fill="#2af" stroke-width="10" style="paint-order:normal"/>
      <g stroke-width="5">
        <path d="m247 353c-6.981-3.3274-11.331-13.055-15-23-1.4475 5.5148-4.4472 21.637 3 30z" fill="#fdc"/>
        <path d="m277 360c6.0691-11.021 4.374-22.424 3-30-2.3139 4.9109-4.9508 16.077-15 23z" fill="#fdc"/>
        <circle cx="256" cy="385" r="32.5" fill="#a52" style="paint-order:normal"/>
        <rect x="231" y="402.5" width="50" height="30" rx="10" ry="10" fill="#fcb" style="paint-order:normal"/>
      </g>
    </g>
    <circle cx="240" cy="380" r="5" style="paint-order:stroke fill markers"/>
    <circle cx="272" cy="380" r="5" style="paint-order:stroke fill markers"/>
  </g>
  <g stroke="#000" stroke-linecap="round" stroke-linejoin="round" stroke-width="5">
    <path d="m242 415.1 8-0.2" fill="none"/>
    <path d="m262 414.9 8 0.2" fill="none"/>
    <path d="m201 355c14.019-7.566 31.872 3.1066 28 11-3.8721 7.8934-24.644 0.59331-28-11z" fill="#a52"/>
    <path d="m311 355c-15.313-7.513-33.398 3.8132-28 11 5.3979 7.1868 26.452-0.50472 28-11z" fill="#a52"/>
  </g>
</svg>