<?xml version="1.1" encoding="UTF-8"?>
<svg width="512" height="512" viewBox="0 0 512 512" version="1.1" xmlns="http://www.w3.org/2000/svg">
  <g stroke="#000">
    <g stroke-width="10">
      <path d="m416 224c42.638 37.916 20 170 20 170s20.725 2.1082 25 10c4.0478 7.4724-5 25-5 25s-33.363 3.0596-50 5c-50.103 5.8437-99.558 20-150 20s-99.897-14.156-150-20c-16.637-1.9404-50-5-50-5s-9.0478-17.528-5-25c4.275-7.8918 25-10 25-10s-22.638-132.08 20-170c79.709-70.882 240.29-70.882 320 0z" fill="#0cf" stroke="#000" stroke-linecap="round" stroke-linejoin="round" style="paint-order:normal"/>
      <path d="m256 109c-50.442 0-140.12 8.7142-150 20-9.8809 11.286 0 45 0 45h300s9.8809-33.714 0-45-99.558-20-150-20z" fill="#0cf" stroke="#000" stroke-linecap="round" stroke-linejoin="round"/>
      <path d="m136 176c-24.868-55.106 59.542-136 120-136s144.87 80.894 120 136c-32.906 72.919-207.09 72.919-240 0z" fill="#ffd"/>
      <path d="m106 129s98.253 40 150 40 150-40 150-40 52.291 47.837 40 75-124.51 50-190 50-177.71-22.837-190-50 40-75 40-75z" fill="#0af" stroke="#000" stroke-linecap="round" stroke-linejoin="round" style="paint-order:normal"/>
    </g>
    <g stroke="#000" stroke-linecap="round" stroke-linejoin="round">
      <path d="m76 394c25.426-1.2318 46.667 8 70 12" fill="none" stroke-width="10"/>
      <path d="m436 394c-23.595-2.2781-46.667 8-70 12" fill="none" stroke-width="10"/>
      <path transform="matrix(.54151 .42075 -.43389 .52929 310.02 46.411)" d="m223.97 458.77c-3.2309 2.4727-74.876 18.813-78.755 17.353-3.8795-1.4602-51.786-60.082-52.788-64.142-1.0012-4.0607 21.32-74.965 24.374-77.773 3.0541-2.8083 81.759-13.301 85.717-12.063 3.9587 1.2379 51.479 61.648 51.899 65.69 0.41997 4.0418-27.217 68.463-30.448 70.936z" fill="#ffd" stroke="#000" stroke-linecap="round" stroke-linejoin="round" stroke-width="7.2997" style="paint-order:normal"/>
      <path transform="matrix(-.078054 .48877 -.51012 -.07493 507.19 327.98)" d="m223.97 458.77c-3.2309 2.4727-74.876 18.813-78.755 17.353-3.8795-1.4602-51.786-60.082-52.788-64.142-1.0012-4.0607 21.32-74.965 24.374-77.773 3.0541-2.8083 81.759-13.301 85.717-12.063 3.9587 1.2379 51.479 61.648 51.899 65.69 0.41997 4.0418-27.217 68.463-30.448 70.936z" fill="#ffd" stroke-linecap="round" stroke-linejoin="round" stroke-width="9.898" style="paint-order:normal"/>
    </g>
    <g fill="none" stroke="#000" stroke-linecap="round" stroke-linejoin="round" stroke-width="5">
      <path d="m187.14 307.15 44.255 18.711 43.488-19.956" style="paint-order:normal"/>
      <path d="m231.79 377.04-0.39749-51.177" style="paint-order:normal"/>
      <path d="m258.65 366.66 30.889 12.977 32.349-15.776" style="paint-order:normal"/>
      <path d="m289.62 417.25-0.0879-37.609" style="paint-order:normal"/>
    </g>
  </g>
  <ellipse cx="204.86" cy="300" rx="2.7866" ry="2.7836" style="paint-order:stroke fill markers"/>
  <ellipse cx="262.64" cy="393.56" rx="1.5406" ry="1.539" style="paint-order:stroke fill markers"/>
  <ellipse cx="272.04" cy="362.95" rx="1.6481" ry="1.6463" style="paint-order:stroke fill markers"/>
  <ellipse cx="271.81" cy="386.9" rx="1.9533" ry="1.9512" style="paint-order:stroke fill markers"/>
  <ellipse cx="261.1" cy="378.29" rx="2.087" ry="2.0848" style="paint-order:stroke fill markers"/>
  <ellipse cx="190.9" cy="342.14" rx="3.5903" ry="3.5864" style="paint-order:stroke fill markers"/>
  <ellipse cx="202.53" cy="333.74" rx="2.7866" ry="2.7836" style="paint-order:stroke fill markers"/>
  <ellipse cx="191.93" cy="324.65" rx="2.9077" ry="2.9046" style="paint-order:stroke fill markers"/>
  <circle cx="161.53" cy="129.62" r="3.0083" style="paint-order:stroke fill markers"/>
  <circle cx="184.42" cy="126.87" r="3.1391" style="paint-order:stroke fill markers"/>
  <circle cx="185.47" cy="100.97" r="3.9238" style="paint-order:stroke fill markers"/>
  <circle cx="204.04" cy="140.73" r="3.4007" style="paint-order:stroke fill markers"/>
  <circle cx="207.1" cy="81.011" r="1.9619" style="paint-order:stroke fill markers"/>
  <circle cx="315.95" cy="98.58" r="3.6622" style="paint-order:stroke fill markers"/>
  <circle cx="294.07" cy="139.61" r="4.1854" style="paint-order:stroke fill markers"/>
  <circle cx="280.16" cy="67.228" r="3.4007" style="paint-order:stroke fill markers"/>
  <circle cx="314.99" cy="138.11" r="3.1391" style="paint-order:stroke fill markers"/>
  <circle cx="322.67" cy="121.25" r="3.2699" style="paint-order:stroke fill markers"/>
  <circle cx="336.53" cy="100.32" r="3.793" style="paint-order:stroke fill markers"/>
  <circle cx="344.38" cy="128.83" r="3.2699" style="paint-order:stroke fill markers"/>
  <circle cx="296.89" cy="114.91" r="2.5896" style="paint-order:stroke fill markers"/>
</svg>