<?xml version="1.0" encoding="UTF-8"?>
<!-- Created with Inkscape (http://www.inkscape.org/) -->
<svg width="512" height="512" version="1.1" viewBox="0 0 512 512" xmlns="http://www.w3.org/2000/svg">
 <g stroke="#000" stroke-width="10">
  <path d="m416 224c42.638 37.916 20 170 20 170s20.725 2.1082 25 10c4.0478 7.4724-5 25-5 25s-33.363 3.0596-50 5c-50.103 5.8437-99.558 20-150 20s-99.897-14.156-150-20c-16.637-1.9404-50-5-50-5s-9.0478-17.528-5-25c4.275-7.8918 25-10 25-10s-22.638-132.08 20-170c79.709-70.882 240.29-70.882 320 0z" fill="#952" stroke-linecap="round" stroke-linejoin="round" style="paint-order:normal"/>
  <path d="m256 109c-50.442 0-140.12 8.7142-150 20-9.8809 11.286 0 45 0 45h300s9.8809-33.714 0-45-99.558-20-150-20z" fill="#952" stroke-linecap="round" stroke-linejoin="round"/>
  <path d="m136 176c-24.868-55.106 59.542-136 120-136s144.87 80.894 120 136c-32.906 72.919-207.09 72.919-240 0z" fill="#feb"/>
  <path d="m106 129s98.253 40 150 40 150-40 150-40 52.291 47.837 40 75-124.51 50-190 50-177.71-22.837-190-50 40-75 40-75z" fill="#a63" stroke-linecap="round" stroke-linejoin="round"/>
 </g>
 <g>
  <circle cx="164.63" cy="127.19" r="4.3031" style="paint-order:stroke fill markers"/>
  <circle cx="193.44" cy="109.64" r="4.4339" style="paint-order:stroke fill markers"/>
  <circle cx="207.14" cy="138.3" r="4.6955" style="paint-order:stroke fill markers"/>
 </g>
 <g>
  <circle cx="304.07" cy="104.84" r="3.6622" style="paint-order:stroke fill markers"/>
  <circle cx="296.98" cy="142.54" r="4.1854" style="paint-order:stroke fill markers"/>
  <circle cx="276.42" cy="65.723" r="5.6204" style="paint-order:stroke fill markers"/>
  <circle cx="319.85" cy="127.33" r="4.1948" style="paint-order:stroke fill markers"/>
  <circle cx="334.63" cy="101.03" r="3.793" style="paint-order:stroke fill markers"/>
  <circle cx="346.37" cy="123.44" r="4.5647" style="paint-order:stroke fill markers"/>
 </g>
 <g stroke="#000" stroke-linecap="round" stroke-linejoin="round">
  <path d="m76 394c25.426-1.2318 46.667 8 70 12" fill="none" stroke-width="10"/>
  <path d="m436 394c-23.595-2.2781-46.667 8-70 12" fill="none" stroke-width="10"/>
  <g fill="#fd6" stroke-width="5">
   <g fill="#fd6" stroke="#000">
    <path d="m332.13 324.76c-17.29-12.956-42.421 3.7963-42.858 18.35-0.37537 12.493 33.94 14.183 42.858-18.35z" style="paint-order:normal"/>
    <path d="m280.39 293.77c22.094 8.4342 11.511 39.057 0.39493 42.215-9.889 2.8098-18.76-27.414-0.39493-42.215z" style="paint-order:normal"/>
    <path d="m305.57 361.06c-15.028-16.959-43.725-0.42257-45.006 10.754-1.1403 9.9499 30.152 22.448 45.006-10.754z" style="paint-order:normal"/>
    <path d="m260.18 322.15c17.955 14.143 3.844 40.435-8.5266 41.281-10.568 0.72275-12.702-28.842 8.5266-41.281z" style="paint-order:normal"/>
    <path d="m272.96 392.25c-11.156-19.792-44.961-5.9367-46.326 2.6191-1.9081 11.96 29.138 24.298 46.326-2.6191z" style="paint-order:normal"/>
    <path d="m233.9 345.66c18.589 16.317-0.91037 42.872-13.731 39.176-10.762-3.1027-7.0286-31.061 13.731-39.176z" style="paint-order:normal"/>
    <path d="m302.97 315.91c16.442-2.5969 34.063-22.267 22.209-44.851-23.784 5.1207-29.114 34.708-22.209 44.851z" style="paint-order:normal"/>
   </g>
   <path d="m217.78 393.06c-0.17024-3.0914-24.196 10.429-41.219 13.988-2.8023 0.58577-0.93877 5.5928 1.7492 4.5391 14.941-5.8569 39.639-15.435 39.469-18.527z"/>
  </g>
 </g>
</svg>
